#N canvas 22 23 1257 795 10;
#X declare -lib mrpeach;
#X obj 115 35 metro 1000;
#X obj 240 79 comport 2 9600;
#X msg 194 35 devices;
#X msg 366 36 ports;
#X obj 425 114 print;
#X obj 163 346 smooth;
#X obj 119 -13 tgl 15 0 empty empty empty 17 7 0 10 -262144 -1 -1 0
1;
#X obj 149 567 noteout 1;
#X obj 150 531 makenote 50 100;
#X floatatom 151 504 5 0 0 0 - - -;
#X floatatom 257 505 5 0 0 0 - - -;
#X obj 333 343 smooth;
#X obj 357 533 makenote 50 100;
#X floatatom 358 506 5 0 0 0 - - -;
#X obj 368 457 knob 32 32 0 127 0 0 empty empty empty 0 -8 0 8 -262144
-1 -1 0 1;
#X obj 458 345 smooth;
#X obj 482 535 makenote 50 100;
#X floatatom 483 508 5 0 0 0 - - -;
#X obj 493 459 knob 32 32 0 127 0 0 empty empty empty 0 -8 0 8 -262144
-1 -1 100 1;
#X obj 578 347 smooth;
#X floatatom 603 510 5 0 0 0 - - -;
#X obj 613 461 knob 32 32 0 127 0 0 empty empty empty 0 -8 0 8 -262144
-1 -1 900 1;
#X obj 703 346 smooth;
#X obj 727 536 makenote 50 100;
#X floatatom 728 509 5 0 0 0 - - -;
#X obj 738 460 knob 32 32 0 127 0 0 empty empty empty 0 -8 0 8 -262144
-1 -1 905 1;
#X obj 821 349 smooth;
#X obj 845 539 makenote 50 100;
#X floatatom 846 512 5 0 0 0 - - -;
#X obj 856 463 knob 32 32 0 127 0 0 empty empty empty 0 -8 0 8 -262144
-1 -1 600 1;
#X obj 922 350 smooth;
#X floatatom 947 513 5 0 0 0 - - -;
#X obj 957 464 knob 32 32 0 127 0 0 empty empty empty 0 -8 0 8 -262144
-1 -1 3100 1;
#X obj 1047 352 smooth;
#X floatatom 1072 515 5 0 0 0 - - -;
#X obj 1082 466 knob 32 32 0 127 0 0 empty empty empty 0 -8 0 8 -262144
-1 -1 1430 1;
#X obj 1167 354 smooth;
#X obj 1191 544 makenote 50 100;
#X floatatom 1192 517 5 0 0 0 - - -;
#X obj 1202 468 knob 32 32 0 127 0 0 empty empty empty 0 -8 0 8 -262144
-1 -1 600 1;
#X obj 1292 353 smooth;
#X obj 1322 543 makenote 50 100;
#X floatatom 1323 516 5 0 0 0 - - -;
#X obj 1333 467 knob 32 32 0 127 0 0 empty empty empty 0 -8 0 8 -262144
-1 -1 0 1;
#X obj 255 568 noteout 2;
#X obj 356 569 noteout 3;
#X obj 481 571 noteout 4;
#X obj 601 573 noteout 5;
#X obj 726 572 noteout 6;
#X obj 844 575 noteout 7;
#X obj 945 576 noteout 8;
#X obj 1070 578 noteout 9;
#X obj 1190 580 noteout 10;
#X obj 1321 579 noteout 11;
#X obj 579 255 unpack f f f f f f f f f f f;
#X obj 237 179 iem_alisttosym;
#X obj 237 208 fromsymbol;
#X obj 267 456 knob 32 32 0 127 0 0 empty empty empty 0 -8 0 8 -262144
-1 -1 1800 1;
#X obj 161 455 knob 32 32 0 127 0 0 empty empty empty 0 -8 0 8 -262144
-1 -1 1000 1;
#X floatatom 161 394 5 0 0 0 - - -;
#X floatatom 235 391 5 0 0 0 - - -;
#X floatatom 331 389 5 0 0 0 - - -;
#X floatatom 458 391 5 0 0 0 - - -;
#X floatatom 577 390 5 0 0 0 - - -;
#X floatatom 701 393 5 0 0 0 - - -;
#X floatatom 825 392 5 0 0 0 - - -;
#X floatatom 931 392 5 0 0 0 - - -;
#X floatatom 1055 389 5 0 0 0 - - -;
#X floatatom 1176 391 5 0 0 0 - - -;
#X floatatom 1305 391 5 0 0 0 - - -;
#X obj 359 125 bng 15 250 50 0 empty empty empty 17 7 0 10 -262144
-1 -1;
#X obj 364 145 bng 15 250 50 0 empty empty empty 17 7 0 10 -262144
-1 -1;
#X obj 365 168 bng 15 250 50 0 empty empty empty 17 7 0 10 -262144
-1 -1;
#X obj 239 117 sel 13 10;
#X obj 238 154 zl group 1000;
#X obj 383 426 autoscale 0 127;
#X obj 715 425 autoscale 0 127;
#X obj 834 426 autoscale 0 127;
#X obj 944 426 autoscale 0 127;
#X obj 1166 425 autoscale 0 127;
#X obj 490 427 autoscale 0 127;
#X obj -7 544 import mrpeach;
#X msg 37 718 connect localhost 9001;
#X obj 501 707 packOSC;
#X obj 37 664 inlet;
#X obj 8 746 udpsend;
#X obj 232 342 smooth;
#X msg 11 598 send /attention \$1;
#X msg 134 598 send /mediation \$1;
#X msg 263 599 send /Delta \$1;
#X msg 386 599 send /Theta \$1;
#X msg 512 599 send /LowA \$1;
#X msg 635 599 send /HighA \$1;
#X msg 763 599 send /LowB \$1;
#X msg 886 599 send /HighB \$1;
#X msg 1010 599 send /LowG \$1;
#X msg 1133 599 send /MidG \$1;
#X msg 318 36 close;
#X obj 256 532 makenote 100 100;
#X obj 946 540 makenote 100 100;
#X obj 1071 542 makenote 110 100;
#X obj 1056 425 autoscale 0 100;
#X obj 602 537 makenote 100 100;
#X obj 605 425 autoscale 0 127;
#X msg 261 36 open 3;
#X connect 0 0 1 0;
#X connect 1 0 4 0;
#X connect 1 0 73 0;
#X connect 2 0 1 0;
#X connect 3 0 1 0;
#X connect 5 0 59 0;
#X connect 6 0 0 0;
#X connect 8 0 7 0;
#X connect 8 1 7 1;
#X connect 9 0 8 0;
#X connect 10 0 98 0;
#X connect 12 0 45 0;
#X connect 12 1 45 1;
#X connect 13 0 12 0;
#X connect 14 0 13 0;
#X connect 15 0 62 0;
#X connect 16 0 46 0;
#X connect 16 1 46 1;
#X connect 17 0 16 0;
#X connect 18 0 17 0;
#X connect 19 0 63 0;
#X connect 20 0 102 0;
#X connect 21 0 20 0;
#X connect 22 0 64 0;
#X connect 23 0 48 0;
#X connect 23 1 48 1;
#X connect 24 0 23 0;
#X connect 25 0 24 0;
#X connect 26 0 65 0;
#X connect 27 0 49 0;
#X connect 27 1 49 1;
#X connect 28 0 27 0;
#X connect 29 0 28 0;
#X connect 30 0 66 0;
#X connect 31 0 99 0;
#X connect 32 0 31 0;
#X connect 33 0 67 0;
#X connect 34 0 100 0;
#X connect 35 0 34 0;
#X connect 36 0 68 0;
#X connect 37 0 52 0;
#X connect 37 1 52 1;
#X connect 38 0 37 0;
#X connect 39 0 38 0;
#X connect 40 0 69 0;
#X connect 41 0 53 0;
#X connect 41 1 53 1;
#X connect 42 0 41 0;
#X connect 43 0 42 0;
#X connect 54 0 5 0;
#X connect 54 1 60 0;
#X connect 54 2 61 0;
#X connect 54 3 15 0;
#X connect 54 3 89 0;
#X connect 54 4 19 0;
#X connect 54 4 90 0;
#X connect 54 5 22 0;
#X connect 54 5 91 0;
#X connect 54 6 26 0;
#X connect 54 6 92 0;
#X connect 54 7 30 0;
#X connect 54 7 93 0;
#X connect 54 8 33 0;
#X connect 54 8 94 0;
#X connect 54 9 36 0;
#X connect 54 9 95 0;
#X connect 54 10 40 0;
#X connect 54 10 96 0;
#X connect 55 0 56 0;
#X connect 56 0 54 0;
#X connect 57 0 10 0;
#X connect 58 0 9 0;
#X connect 60 0 58 0;
#X connect 60 0 87 0;
#X connect 61 0 57 0;
#X connect 61 0 88 0;
#X connect 62 0 75 0;
#X connect 63 0 80 0;
#X connect 64 0 103 0;
#X connect 65 0 76 0;
#X connect 66 0 77 0;
#X connect 67 0 78 0;
#X connect 68 0 101 0;
#X connect 69 0 79 0;
#X connect 73 0 70 0;
#X connect 73 1 71 0;
#X connect 73 1 74 0;
#X connect 73 2 72 0;
#X connect 73 2 74 0;
#X connect 74 0 55 0;
#X connect 75 0 14 0;
#X connect 76 0 25 0;
#X connect 77 0 29 0;
#X connect 78 0 32 0;
#X connect 79 0 39 0;
#X connect 80 0 18 0;
#X connect 82 0 85 0;
#X connect 83 0 85 0;
#X connect 84 0 82 0;
#X connect 87 0 83 0;
#X connect 88 0 83 0;
#X connect 89 0 83 0;
#X connect 90 0 83 0;
#X connect 91 0 83 0;
#X connect 92 0 83 0;
#X connect 93 0 83 0;
#X connect 94 0 83 0;
#X connect 95 0 83 0;
#X connect 96 0 83 0;
#X connect 97 0 1 0;
#X connect 98 0 44 0;
#X connect 98 1 44 1;
#X connect 99 0 50 0;
#X connect 99 1 50 1;
#X connect 100 0 51 0;
#X connect 100 1 51 1;
#X connect 101 0 35 0;
#X connect 102 0 47 0;
#X connect 102 1 47 1;
#X connect 103 0 21 0;
#X connect 104 0 1 0;
